<svg width="16" height="19" viewBox="0 0 16 19" fill="none" xmlns="http://www.w3.org/2000/svg">
<path fill-rule="evenodd" clip-rule="evenodd" d="M6.2773 15.4854C6.27757 16.3991 7.0226 17.1462 7.9482 17.1465C8.87406 17.1465 9.61981 16.3993 9.62008 15.4854H11.1201C11.1198 17.2338 9.69636 18.6465 7.9482 18.6465C6.20029 18.6462 4.77757 17.2336 4.7773 15.4854H6.2773ZM7.9482 0C8.13338 7.72437e-06 8.31633 0.00941848 8.49703 0.0253906C8.24188 0.468208 8.07414 0.967929 8.01851 1.50098C7.99511 1.50062 7.97167 1.5 7.9482 1.5C5.25915 1.5 3.0226 3.84588 2.6357 6.22949C2.31487 8.20635 1.8089 11.3466 1.56539 12.8584H14.331C14.086 11.346 13.5771 8.204 13.2607 6.22754C13.2167 5.95295 13.146 5.67939 13.0546 5.40918C13.5429 5.22761 13.9827 4.94767 14.3505 4.59277C14.5335 5.0519 14.666 5.5219 14.7412 5.99121C15.0915 8.17993 15.6784 11.7996 15.8808 13.0488C15.9928 13.7399 15.4569 14.3583 14.7646 14.3584H1.13082C0.439236 14.3584 -0.0963455 13.7415 0.0146065 13.0508L1.15523 5.98926C1.63852 3.01159 4.39718 0 7.9482 0ZM9.5732 0.21582C11.4362 0.718082 12.9647 2.04514 13.8808 3.62891C13.5618 4.02068 13.1373 4.32103 12.6503 4.49023C11.899 3.12419 10.5765 1.98907 9.01168 1.62402C9.06327 1.09614 9.26585 0.613432 9.5732 0.21582Z" fill="white"/>
</svg>
