<svg width="18" height="18" viewBox="0 0 18 18" fill="none" xmlns="http://www.w3.org/2000/svg">
<path fill-rule="evenodd" clip-rule="evenodd" d="M0 2C0 1.46957 0.21071 0.96086 0.58579 0.58579C0.96086 0.21071 1.46957 0 2 0H16C16.5304 0 17.0391 0.21071 17.4142 0.58579C17.7893 0.96086 18 1.46957 18 2V16C18 16.5304 17.7893 17.0391 17.4142 17.4142C17.0391 17.7893 16.5304 18 16 18H2C1.46957 18 0.96086 17.7893 0.58579 17.4142C0.21071 17.0391 0 16.5304 0 16V2ZM11 2H7V16H11V2ZM13 2H16V16H13V2ZM5 16V2H2V16H5Z" fill="#15191E"/>
</svg>
