<svg width="24" height="24" viewBox="0 0 24 24" fill="none" xmlns="http://www.w3.org/2000/svg">
<path d="M12 2.25C17.3848 2.25 21.75 6.61522 21.75 12C21.75 17.3848 17.3848 21.75 12 21.75C6.61522 21.75 2.25 17.3848 2.25 12C2.25 6.61522 6.61522 2.25 12 2.25ZM12 3.75C7.44365 3.75 3.75 7.44365 3.75 12C3.75 16.5563 7.44365 20.25 12 20.25C16.5563 20.25 20.25 16.5563 20.25 12C20.25 7.44365 16.5563 3.75 12 3.75ZM12.75 18.2549H11.25V16.75H12.75V18.2549ZM12 5.75C12.8758 5.75 13.7905 5.98968 14.5068 6.5166C15.2448 7.05949 15.7499 7.89664 15.75 8.98242C15.75 9.84482 15.5168 10.4857 15.1299 10.999C14.7728 11.4726 14.2957 11.8108 13.958 12.0713C13.5925 12.3532 13.3139 12.5943 13.1094 12.9297C12.9123 13.2529 12.75 13.723 12.75 14.5V15.25H11.25V14.5C11.25 13.4995 11.4628 12.7476 11.8281 12.1484C12.1861 11.5614 12.6576 11.1793 13.042 10.8828C13.4541 10.5649 13.7272 10.3682 13.9326 10.0957C14.1081 9.86286 14.25 9.5451 14.25 8.98242C14.2499 8.41335 14.005 8.00919 13.6182 7.72461C13.2095 7.42398 12.6242 7.25 12 7.25C11.3758 7.25 10.7905 7.42398 10.3818 7.72461C9.99498 8.0092 9.75009 8.41337 9.75 8.98242V9.73242H8.25V8.98242C8.2501 7.89665 8.75517 7.05949 9.49316 6.5166C10.2095 5.98969 11.1242 5.75 12 5.75Z" fill="white"/>
</svg>
