<svg width="22" height="18" viewBox="0 0 22 18" fill="none" xmlns="http://www.w3.org/2000/svg">
<path d="M10.75 16.75H2.25C1.85218 16.75 1.47064 16.592 1.18934 16.3107C0.908035 16.0294 0.75 15.6478 0.75 15.25V2.25C0.75 1.85218 0.908035 1.47064 1.18934 1.18934C1.47064 0.908035 1.85218 0.75 2.25 0.75H19.25C19.6478 0.75 20.0294 0.908035 20.3107 1.18934C20.592 1.47064 20.75 1.85218 20.75 2.25V8.2795" stroke="#566676" stroke-width="1.5" stroke-linecap="round" stroke-linejoin="round"/>
<path d="M0.75 2.25C0.75 1.85218 0.908035 1.47064 1.18934 1.18934C1.47064 0.908035 1.85218 0.75 2.25 0.75H19.25C19.6478 0.75 20.0294 0.908035 20.3107 1.18934C20.592 1.47064 20.75 1.85218 20.75 2.25V6.75H0.75V2.25Z" stroke="#566676" stroke-width="1.5"/>
<path d="M2.75 3.75C2.75 3.19772 3.19772 2.75 3.75 2.75C4.30228 2.75 4.75 3.19772 4.75 3.75C4.75 4.30228 4.30228 4.75 3.75 4.75C3.19772 4.75 2.75 4.30228 2.75 3.75Z" fill="#566676"/>
<path d="M5.75 3.75C5.75 3.19772 6.19772 2.75 6.75 2.75C7.30228 2.75 7.75 3.19772 7.75 3.75C7.75 4.30228 7.30228 4.75 6.75 4.75C6.19772 4.75 5.75 4.30228 5.75 3.75Z" fill="#566676"/>
<path d="M17.25 15.25C18.0784 15.25 18.75 14.5784 18.75 13.75C18.75 12.9216 18.0784 12.25 17.25 12.25C16.4216 12.25 15.75 12.9216 15.75 13.75C15.75 14.5784 16.4216 15.25 17.25 15.25Z" stroke="#566676" stroke-width="1.5"/>
<path d="M17.25 17.25V15.25M17.25 12.25V10.25M14.219 15.5L15.951 14.5M18.549 13L20.281 12M14.219 12L15.951 13M18.549 14.5L20.281 15.5" stroke="#566676" stroke-width="1.5" stroke-linecap="round" stroke-linejoin="round"/>
</svg>
